<mxfile host="65bd71144e">
    <diagram id="NfX02L-r47V-rbyEfhdL" name="api-gateway-apis">
        <mxGraphModel dx="929" dy="597" grid="1" gridSize="10" guides="1" tooltips="1" connect="1" arrows="1" fold="1" page="1" pageScale="1" pageWidth="850" pageHeight="1100" math="0" shadow="0">
            <root>
                <mxCell id="0"/>
                <mxCell id="1" parent="0"/>
                <mxCell id="dMo6eIqrZlNhnUzZI8Va-13" value="" style="rounded=0;whiteSpace=wrap;html=1;fillColor=default;dashed=1;" parent="1" vertex="1">
                    <mxGeometry x="80" y="40" width="1100" height="640" as="geometry"/>
                </mxCell>
                <mxCell id="dMo6eIqrZlNhnUzZI8Va-9" value="" style="rounded=0;whiteSpace=wrap;html=1;fillColor=none;dashed=1;" parent="1" vertex="1">
                    <mxGeometry x="300" y="142.5" width="280" height="350" as="geometry"/>
                </mxCell>
                <mxCell id="dMo6eIqrZlNhnUzZI8Va-1" value="" style="rounded=0;whiteSpace=wrap;html=1;fillColor=none;dashed=1;" parent="1" vertex="1">
                    <mxGeometry x="700" y="142.5" width="340" height="280" as="geometry"/>
                </mxCell>
                <mxCell id="NLai3ne8a5GMpxjhCFHL-25" value="" style="rounded=0;whiteSpace=wrap;html=1;fillColor=none;" parent="1" vertex="1">
                    <mxGeometry x="310" y="153.5" width="260" height="99" as="geometry"/>
                </mxCell>
                <mxCell id="NLai3ne8a5GMpxjhCFHL-1" value="" style="sketch=0;points=[[0,0,0],[0.25,0,0],[0.5,0,0],[0.75,0,0],[1,0,0],[0,1,0],[0.25,1,0],[0.5,1,0],[0.75,1,0],[1,1,0],[0,0.25,0],[0,0.5,0],[0,0.75,0],[1,0.25,0],[1,0.5,0],[1,0.75,0]];outlineConnect=0;fontColor=#232F3E;gradientColor=#FF4F8B;gradientDirection=north;fillColor=#BC1356;strokeColor=#ffffff;dashed=0;verticalLabelPosition=bottom;verticalAlign=top;align=center;html=1;fontSize=12;fontStyle=0;aspect=fixed;shape=mxgraph.aws4.resourceIcon;resIcon=mxgraph.aws4.api_gateway;" parent="1" vertex="1">
                    <mxGeometry x="300" y="322.5" width="40" height="40" as="geometry"/>
                </mxCell>
                <mxCell id="NLai3ne8a5GMpxjhCFHL-2" value="" style="sketch=0;points=[[0,0,0],[0.25,0,0],[0.5,0,0],[0.75,0,0],[1,0,0],[0,1,0],[0.25,1,0],[0.5,1,0],[0.75,1,0],[1,1,0],[0,0.25,0],[0,0.5,0],[0,0.75,0],[1,0.25,0],[1,0.5,0],[1,0.75,0]];outlineConnect=0;fontColor=#232F3E;gradientColor=#F78E04;gradientDirection=north;fillColor=#D05C17;strokeColor=#ffffff;dashed=0;verticalLabelPosition=bottom;verticalAlign=top;align=center;html=1;fontSize=12;fontStyle=0;aspect=fixed;shape=mxgraph.aws4.resourceIcon;resIcon=mxgraph.aws4.lambda;" parent="1" vertex="1">
                    <mxGeometry x="700" y="322.5" width="40" height="40" as="geometry"/>
                </mxCell>
                <mxCell id="NLai3ne8a5GMpxjhCFHL-3" value="" style="dashed=0;outlineConnect=0;html=1;align=center;labelPosition=center;verticalLabelPosition=bottom;verticalAlign=top;shape=mxgraph.webicons.aws;gradientColor=#DFDEDE" parent="1" vertex="1">
                    <mxGeometry x="260" y="72.5" width="50" height="40" as="geometry"/>
                </mxCell>
                <mxCell id="NLai3ne8a5GMpxjhCFHL-4" value="" style="outlineConnect=0;dashed=0;verticalLabelPosition=bottom;verticalAlign=top;align=center;html=1;shape=mxgraph.aws3.iam;fillColor=#759C3E;gradientColor=none;" parent="1" vertex="1">
                    <mxGeometry x="420" y="162.5" width="40" height="51" as="geometry"/>
                </mxCell>
                <mxCell id="NLai3ne8a5GMpxjhCFHL-5" value="" style="verticalLabelPosition=bottom;html=1;verticalAlign=top;align=center;strokeColor=none;fillColor=#00BEF2;shape=mxgraph.azure.multi_factor_authentication;pointerEvents=1;" parent="1" vertex="1">
                    <mxGeometry x="430" y="315" width="40" height="60" as="geometry"/>
                </mxCell>
                <mxCell id="NLai3ne8a5GMpxjhCFHL-6" value="" style="outlineConnect=0;dashed=0;verticalLabelPosition=bottom;verticalAlign=top;align=center;html=1;shape=mxgraph.aws3.cognito;fillColor=#AD688B;gradientColor=none;" parent="1" vertex="1">
                    <mxGeometry x="340" y="163.5" width="40" height="50" as="geometry"/>
                </mxCell>
                <mxCell id="NLai3ne8a5GMpxjhCFHL-7" value="API Gateway" style="text;html=1;strokeColor=none;fillColor=none;align=center;verticalAlign=middle;whiteSpace=wrap;rounded=0;" parent="1" vertex="1">
                    <mxGeometry x="290" y="372.5" width="110" height="30" as="geometry"/>
                </mxCell>
                <mxCell id="NLai3ne8a5GMpxjhCFHL-8" value="" style="sketch=0;pointerEvents=1;shadow=0;dashed=0;html=1;strokeColor=none;labelPosition=center;verticalLabelPosition=bottom;verticalAlign=top;align=center;fillColor=#505050;shape=mxgraph.mscae.intune.client_software" parent="1" vertex="1">
                    <mxGeometry x="90" y="323.75" width="50" height="45" as="geometry"/>
                </mxCell>
                <mxCell id="NLai3ne8a5GMpxjhCFHL-9" value="client" style="text;html=1;strokeColor=none;fillColor=none;align=center;verticalAlign=middle;whiteSpace=wrap;rounded=0;" parent="1" vertex="1">
                    <mxGeometry x="180" y="372.5" width="60" height="30" as="geometry"/>
                </mxCell>
                <mxCell id="NLai3ne8a5GMpxjhCFHL-10" value="" style="endArrow=classic;html=1;exitX=0.86;exitY=0.5;exitDx=0;exitDy=0;exitPerimeter=0;" parent="1" source="NLai3ne8a5GMpxjhCFHL-8" edge="1">
                    <mxGeometry width="50" height="50" relative="1" as="geometry">
                        <mxPoint x="540" y="322.5" as="sourcePoint"/>
                        <mxPoint x="290" y="345.5" as="targetPoint"/>
                    </mxGeometry>
                </mxCell>
                <mxCell id="NLai3ne8a5GMpxjhCFHL-11" value="cognito" style="text;html=1;strokeColor=none;fillColor=none;align=center;verticalAlign=middle;whiteSpace=wrap;rounded=0;" parent="1" vertex="1">
                    <mxGeometry x="330" y="213.5" width="60" height="30" as="geometry"/>
                </mxCell>
                <mxCell id="NLai3ne8a5GMpxjhCFHL-12" value="IAM" style="text;html=1;strokeColor=none;fillColor=none;align=center;verticalAlign=middle;whiteSpace=wrap;rounded=0;" parent="1" vertex="1">
                    <mxGeometry x="410" y="213.5" width="60" height="30" as="geometry"/>
                </mxCell>
                <mxCell id="NLai3ne8a5GMpxjhCFHL-13" value="" style="shape=image;verticalLabelPosition=bottom;labelBackgroundColor=default;verticalAlign=top;aspect=fixed;imageAspect=0;image=https://graystum.com/content/images/2022/01/Screenshot-from-2022-01-08-13-31-10.png;" parent="1" vertex="1">
                    <mxGeometry x="500" y="164.5" width="39" height="39" as="geometry"/>
                </mxCell>
                <mxCell id="NLai3ne8a5GMpxjhCFHL-14" value="System Manager" style="text;html=1;strokeColor=none;fillColor=none;align=center;verticalAlign=middle;whiteSpace=wrap;rounded=0;" parent="1" vertex="1">
                    <mxGeometry x="489.5" y="213.5" width="60" height="30" as="geometry"/>
                </mxCell>
                <mxCell id="NLai3ne8a5GMpxjhCFHL-15" value="" style="endArrow=classic;html=1;exitX=1;exitY=0.5;exitDx=0;exitDy=0;exitPerimeter=0;" parent="1" source="NLai3ne8a5GMpxjhCFHL-1" edge="1">
                    <mxGeometry width="50" height="50" relative="1" as="geometry">
                        <mxPoint x="540" y="312.5" as="sourcePoint"/>
                        <mxPoint x="420" y="342.5" as="targetPoint"/>
                    </mxGeometry>
                </mxCell>
                <mxCell id="NLai3ne8a5GMpxjhCFHL-16" value="Request Validation" style="text;html=1;strokeColor=none;fillColor=none;align=center;verticalAlign=middle;whiteSpace=wrap;rounded=0;" parent="1" vertex="1">
                    <mxGeometry x="460" y="375" width="60" height="30" as="geometry"/>
                </mxCell>
                <mxCell id="NLai3ne8a5GMpxjhCFHL-17" value="Lambda" style="text;html=1;strokeColor=none;fillColor=none;align=center;verticalAlign=middle;whiteSpace=wrap;rounded=0;" parent="1" vertex="1">
                    <mxGeometry x="710" y="372.5" width="60" height="30" as="geometry"/>
                </mxCell>
                <mxCell id="NLai3ne8a5GMpxjhCFHL-18" value="" style="endArrow=classic;html=1;" parent="1" edge="1">
                    <mxGeometry width="50" height="50" relative="1" as="geometry">
                        <mxPoint x="480" y="342.5" as="sourcePoint"/>
                        <mxPoint x="690" y="342.5" as="targetPoint"/>
                    </mxGeometry>
                </mxCell>
                <mxCell id="NLai3ne8a5GMpxjhCFHL-19" value="or" style="text;html=1;strokeColor=none;fillColor=none;align=center;verticalAlign=middle;whiteSpace=wrap;rounded=0;" parent="1" vertex="1">
                    <mxGeometry x="370" y="173.5" width="60" height="30" as="geometry"/>
                </mxCell>
                <mxCell id="NLai3ne8a5GMpxjhCFHL-20" value="or" style="text;html=1;strokeColor=none;fillColor=none;align=center;verticalAlign=middle;whiteSpace=wrap;rounded=0;" parent="1" vertex="1">
                    <mxGeometry x="470" y="173.5" width="10" height="30" as="geometry"/>
                </mxCell>
                <mxCell id="NLai3ne8a5GMpxjhCFHL-21" value="" style="endArrow=classic;html=1;entryX=0.6;entryY=0.976;entryDx=0;entryDy=0;entryPerimeter=0;exitX=0.493;exitY=0.914;exitDx=0;exitDy=0;exitPerimeter=0;" parent="1" source="NLai3ne8a5GMpxjhCFHL-5" target="NLai3ne8a5GMpxjhCFHL-8" edge="1">
                    <mxGeometry width="50" height="50" relative="1" as="geometry">
                        <mxPoint x="390" y="342.5" as="sourcePoint"/>
                        <mxPoint x="440" y="292.5" as="targetPoint"/>
                        <Array as="points">
                            <mxPoint x="450" y="442.5"/>
                            <mxPoint x="120" y="442.5"/>
                        </Array>
                    </mxGeometry>
                </mxCell>
                <mxCell id="NLai3ne8a5GMpxjhCFHL-22" value="access denied" style="text;html=1;strokeColor=none;fillColor=none;align=center;verticalAlign=middle;whiteSpace=wrap;rounded=0;" parent="1" vertex="1">
                    <mxGeometry x="120" y="412.5" width="160" height="30" as="geometry"/>
                </mxCell>
                <mxCell id="NLai3ne8a5GMpxjhCFHL-23" value="access granted" style="text;html=1;strokeColor=none;fillColor=none;align=center;verticalAlign=middle;whiteSpace=wrap;rounded=0;" parent="1" vertex="1">
                    <mxGeometry x="549.5" y="315" width="160" height="30" as="geometry"/>
                </mxCell>
                <mxCell id="NLai3ne8a5GMpxjhCFHL-24" value="" style="endArrow=classic;html=1;" parent="1" edge="1">
                    <mxGeometry width="50" height="50" relative="1" as="geometry">
                        <mxPoint x="440" y="302.5" as="sourcePoint"/>
                        <mxPoint x="440" y="252.5" as="targetPoint"/>
                    </mxGeometry>
                </mxCell>
                <mxCell id="NLai3ne8a5GMpxjhCFHL-26" value="auth" style="text;html=1;strokeColor=none;fillColor=none;align=center;verticalAlign=middle;whiteSpace=wrap;rounded=0;" parent="1" vertex="1">
                    <mxGeometry x="390" y="272.5" width="50" height="30" as="geometry"/>
                </mxCell>
                <mxCell id="dMo6eIqrZlNhnUzZI8Va-3" value="Business Logic" style="rounded=0;whiteSpace=wrap;html=1;fillColor=#f5f5f5;fontColor=#333333;strokeColor=#666666;" parent="1" vertex="1">
                    <mxGeometry x="790" y="332.5" width="150" height="60" as="geometry"/>
                </mxCell>
                <mxCell id="dMo6eIqrZlNhnUzZI8Va-4" value="orther services" style="rounded=0;whiteSpace=wrap;html=1;fillColor=#e1d5e7;strokeColor=#9673a6;dashed=1;" parent="1" vertex="1">
                    <mxGeometry x="700" y="522.5" width="140" height="80" as="geometry"/>
                </mxCell>
                <mxCell id="dMo6eIqrZlNhnUzZI8Va-5" value="" style="outlineConnect=0;dashed=0;verticalLabelPosition=bottom;verticalAlign=top;align=center;html=1;shape=mxgraph.aws3.iam;fillColor=#759C3E;gradientColor=none;" parent="1" vertex="1">
                    <mxGeometry x="700" y="164.5" width="40" height="51" as="geometry"/>
                </mxCell>
                <mxCell id="dMo6eIqrZlNhnUzZI8Va-6" value="Unit test" style="ellipse;shape=cloud;whiteSpace=wrap;html=1;fillColor=#f5f5f5;fontColor=#333333;strokeColor=#666666;" parent="1" vertex="1">
                    <mxGeometry x="880" y="362.5" width="80" height="50" as="geometry"/>
                </mxCell>
                <mxCell id="dMo6eIqrZlNhnUzZI8Va-7" value="" style="endArrow=classic;html=1;exitX=0.274;exitY=1.002;exitDx=0;exitDy=0;exitPerimeter=0;" parent="1" source="dMo6eIqrZlNhnUzZI8Va-1" edge="1">
                    <mxGeometry width="50" height="50" relative="1" as="geometry">
                        <mxPoint x="860" y="422.5" as="sourcePoint"/>
                        <mxPoint x="793" y="520" as="targetPoint"/>
                    </mxGeometry>
                </mxCell>
                <mxCell id="dMo6eIqrZlNhnUzZI8Va-8" value="Integration Test" style="ellipse;shape=cloud;whiteSpace=wrap;html=1;fillColor=#f5f5f5;fontColor=#333333;strokeColor=#666666;" parent="1" vertex="1">
                    <mxGeometry x="770" y="450" width="140" height="50" as="geometry"/>
                </mxCell>
                <mxCell id="dMo6eIqrZlNhnUzZI8Va-10" value="IAM" style="text;html=1;strokeColor=none;fillColor=none;align=center;verticalAlign=middle;whiteSpace=wrap;rounded=0;" parent="1" vertex="1">
                    <mxGeometry x="700" y="215.5" width="60" height="30" as="geometry"/>
                </mxCell>
                <mxCell id="dMo6eIqrZlNhnUzZI8Va-12" value="" style="rounded=0;whiteSpace=wrap;html=1;fillColor=none;dashed=1;" parent="1" vertex="1">
                    <mxGeometry x="260" y="62.5" width="880" height="560" as="geometry"/>
                </mxCell>
                <mxCell id="dMo6eIqrZlNhnUzZI8Va-14" value="E2E Test" style="ellipse;shape=cloud;whiteSpace=wrap;html=1;dashed=1;fillColor=default;" parent="1" vertex="1">
                    <mxGeometry x="149.5" y="302.5" width="101" height="37.5" as="geometry"/>
                </mxCell>
                <mxCell id="8r7PE_2kocB-lPaz_52F-1" value="" style="sketch=0;points=[[0,0,0],[0.25,0,0],[0.5,0,0],[0.75,0,0],[1,0,0],[0,1,0],[0.25,1,0],[0.5,1,0],[0.75,1,0],[1,1,0],[0,0.25,0],[0,0.5,0],[0,0.75,0],[1,0.25,0],[1,0.5,0],[1,0.75,0]];outlineConnect=0;fontColor=#232F3E;gradientColor=#4D72F3;gradientDirection=north;fillColor=#3334B9;strokeColor=#ffffff;dashed=0;verticalLabelPosition=bottom;verticalAlign=top;align=center;html=1;fontSize=12;fontStyle=0;aspect=fixed;shape=mxgraph.aws4.resourceIcon;resIcon=mxgraph.aws4.rds;" parent="1" vertex="1">
                    <mxGeometry x="970" y="542.5" width="40" height="40" as="geometry"/>
                </mxCell>
                <mxCell id="8r7PE_2kocB-lPaz_52F-2" value="" style="rounded=0;whiteSpace=wrap;html=1;fillColor=none;" parent="1" vertex="1">
                    <mxGeometry x="920" y="522.5" width="200" height="80" as="geometry"/>
                </mxCell>
                <mxCell id="8r7PE_2kocB-lPaz_52F-3" value="" style="sketch=0;points=[[0,0,0],[0.25,0,0],[0.5,0,0],[0.75,0,0],[1,0,0],[0,1,0],[0.25,1,0],[0.5,1,0],[0.75,1,0],[1,1,0],[0,0.25,0],[0,0.5,0],[0,0.75,0],[1,0.25,0],[1,0.5,0],[1,0.75,0]];outlineConnect=0;fontColor=#232F3E;gradientColor=#4D72F3;gradientDirection=north;fillColor=#3334B9;strokeColor=#ffffff;dashed=0;verticalLabelPosition=bottom;verticalAlign=top;align=center;html=1;fontSize=12;fontStyle=0;aspect=fixed;shape=mxgraph.aws4.resourceIcon;resIcon=mxgraph.aws4.dynamodb;" parent="1" vertex="1">
                    <mxGeometry x="1040" y="542.5" width="40" height="40" as="geometry"/>
                </mxCell>
                <mxCell id="8r7PE_2kocB-lPaz_52F-4" value="" style="endArrow=classic;html=1;entryX=0.395;entryY=-0.044;entryDx=0;entryDy=0;entryPerimeter=0;exitX=0.879;exitY=1.002;exitDx=0;exitDy=0;exitPerimeter=0;" parent="1" source="dMo6eIqrZlNhnUzZI8Va-1" target="8r7PE_2kocB-lPaz_52F-2" edge="1">
                    <mxGeometry width="50" height="50" relative="1" as="geometry">
                        <mxPoint x="500" y="340" as="sourcePoint"/>
                        <mxPoint x="550" y="290" as="targetPoint"/>
                    </mxGeometry>
                </mxCell>
                <mxCell id="Lyje0o3I4MXaj5E5IUm4-1" value="Data Source" style="text;html=1;strokeColor=none;fillColor=none;align=center;verticalAlign=middle;whiteSpace=wrap;rounded=0;" parent="1" vertex="1">
                    <mxGeometry x="1010" y="492.5" width="100" height="30" as="geometry"/>
                </mxCell>
            </root>
        </mxGraphModel>
    </diagram>
    <diagram id="QCwcd996cjHw-_FYkZlq" name="appsync apis-testing">
        <mxGraphModel dx="929" dy="597" grid="1" gridSize="10" guides="1" tooltips="1" connect="1" arrows="1" fold="1" page="1" pageScale="1" pageWidth="850" pageHeight="1100" math="0" shadow="0">
            <root>
                <mxCell id="0"/>
                <mxCell id="1" parent="0"/>
                <mxCell id="9oU7OFQDeNQ4QsPFwUaJ-1" value="" style="rounded=0;whiteSpace=wrap;html=1;fillColor=default;dashed=1;" parent="1" vertex="1">
                    <mxGeometry x="10" y="3.5" width="1380" height="672.5" as="geometry"/>
                </mxCell>
                <mxCell id="UMQPQjsPPzarFVJ_cjvQ-2" value="" style="rounded=0;whiteSpace=wrap;html=1;fillColor=none;dashed=1;" parent="1" vertex="1">
                    <mxGeometry x="250" y="80" width="280" height="350" as="geometry"/>
                </mxCell>
                <mxCell id="UMQPQjsPPzarFVJ_cjvQ-3" value="" style="rounded=0;whiteSpace=wrap;html=1;fillColor=none;dashed=1;" parent="1" vertex="1">
                    <mxGeometry x="830" y="80" width="370" height="280" as="geometry"/>
                </mxCell>
                <mxCell id="UMQPQjsPPzarFVJ_cjvQ-4" value="" style="rounded=0;whiteSpace=wrap;html=1;fillColor=none;" parent="1" vertex="1">
                    <mxGeometry x="260" y="91" width="260" height="99" as="geometry"/>
                </mxCell>
                <mxCell id="UMQPQjsPPzarFVJ_cjvQ-6" value="" style="sketch=0;points=[[0,0,0],[0.25,0,0],[0.5,0,0],[0.75,0,0],[1,0,0],[0,1,0],[0.25,1,0],[0.5,1,0],[0.75,1,0],[1,1,0],[0,0.25,0],[0,0.5,0],[0,0.75,0],[1,0.25,0],[1,0.5,0],[1,0.75,0]];outlineConnect=0;fontColor=#232F3E;gradientColor=#F78E04;gradientDirection=north;fillColor=#D05C17;strokeColor=#ffffff;dashed=0;verticalLabelPosition=bottom;verticalAlign=top;align=center;html=1;fontSize=12;fontStyle=0;aspect=fixed;shape=mxgraph.aws4.resourceIcon;resIcon=mxgraph.aws4.lambda;" parent="1" vertex="1">
                    <mxGeometry x="830" y="260" width="40" height="40" as="geometry"/>
                </mxCell>
                <mxCell id="UMQPQjsPPzarFVJ_cjvQ-7" value="" style="dashed=0;outlineConnect=0;html=1;align=center;labelPosition=center;verticalLabelPosition=bottom;verticalAlign=top;shape=mxgraph.webicons.aws;gradientColor=#DFDEDE" parent="1" vertex="1">
                    <mxGeometry x="240" y="20" width="50" height="40" as="geometry"/>
                </mxCell>
                <mxCell id="UMQPQjsPPzarFVJ_cjvQ-8" value="" style="outlineConnect=0;dashed=0;verticalLabelPosition=bottom;verticalAlign=top;align=center;html=1;shape=mxgraph.aws3.iam;fillColor=#759C3E;gradientColor=none;" parent="1" vertex="1">
                    <mxGeometry x="370" y="100" width="40" height="51" as="geometry"/>
                </mxCell>
                <mxCell id="UMQPQjsPPzarFVJ_cjvQ-9" value="" style="verticalLabelPosition=bottom;html=1;verticalAlign=top;align=center;strokeColor=none;fillColor=#00BEF2;shape=mxgraph.azure.multi_factor_authentication;pointerEvents=1;" parent="1" vertex="1">
                    <mxGeometry x="380" y="252.5" width="40" height="60" as="geometry"/>
                </mxCell>
                <mxCell id="UMQPQjsPPzarFVJ_cjvQ-10" value="" style="outlineConnect=0;dashed=0;verticalLabelPosition=bottom;verticalAlign=top;align=center;html=1;shape=mxgraph.aws3.cognito;fillColor=#AD688B;gradientColor=none;" parent="1" vertex="1">
                    <mxGeometry x="290" y="101" width="40" height="50" as="geometry"/>
                </mxCell>
                <mxCell id="UMQPQjsPPzarFVJ_cjvQ-11" value="AppSync" style="text;html=1;strokeColor=none;fillColor=none;align=center;verticalAlign=middle;whiteSpace=wrap;rounded=0;" parent="1" vertex="1">
                    <mxGeometry x="240" y="310" width="110" height="30" as="geometry"/>
                </mxCell>
                <mxCell id="UMQPQjsPPzarFVJ_cjvQ-12" value="" style="sketch=0;pointerEvents=1;shadow=0;dashed=0;html=1;strokeColor=none;labelPosition=center;verticalLabelPosition=bottom;verticalAlign=top;align=center;fillColor=#505050;shape=mxgraph.mscae.intune.client_software" parent="1" vertex="1">
                    <mxGeometry x="40" y="261.25" width="50" height="45" as="geometry"/>
                </mxCell>
                <mxCell id="UMQPQjsPPzarFVJ_cjvQ-13" value="client" style="text;html=1;strokeColor=none;fillColor=none;align=center;verticalAlign=middle;whiteSpace=wrap;rounded=0;" parent="1" vertex="1">
                    <mxGeometry x="10" y="312.5" width="60" height="30" as="geometry"/>
                </mxCell>
                <mxCell id="UMQPQjsPPzarFVJ_cjvQ-14" value="" style="endArrow=classic;html=1;exitX=0.86;exitY=0.5;exitDx=0;exitDy=0;exitPerimeter=0;" parent="1" source="UMQPQjsPPzarFVJ_cjvQ-12" edge="1">
                    <mxGeometry width="50" height="50" relative="1" as="geometry">
                        <mxPoint x="490" y="260" as="sourcePoint"/>
                        <mxPoint x="240" y="283" as="targetPoint"/>
                    </mxGeometry>
                </mxCell>
                <mxCell id="UMQPQjsPPzarFVJ_cjvQ-15" value="cognito" style="text;html=1;strokeColor=none;fillColor=none;align=center;verticalAlign=middle;whiteSpace=wrap;rounded=0;" parent="1" vertex="1">
                    <mxGeometry x="280" y="151" width="60" height="30" as="geometry"/>
                </mxCell>
                <mxCell id="UMQPQjsPPzarFVJ_cjvQ-16" value="IAM" style="text;html=1;strokeColor=none;fillColor=none;align=center;verticalAlign=middle;whiteSpace=wrap;rounded=0;" parent="1" vertex="1">
                    <mxGeometry x="360" y="151" width="60" height="30" as="geometry"/>
                </mxCell>
                <mxCell id="UMQPQjsPPzarFVJ_cjvQ-17" value="" style="shape=image;verticalLabelPosition=bottom;labelBackgroundColor=default;verticalAlign=top;aspect=fixed;imageAspect=0;image=https://graystum.com/content/images/2022/01/Screenshot-from-2022-01-08-13-31-10.png;" parent="1" vertex="1">
                    <mxGeometry x="450" y="102" width="39" height="39" as="geometry"/>
                </mxCell>
                <mxCell id="UMQPQjsPPzarFVJ_cjvQ-18" value="System Manager" style="text;html=1;strokeColor=none;fillColor=none;align=center;verticalAlign=middle;whiteSpace=wrap;rounded=0;" parent="1" vertex="1">
                    <mxGeometry x="439.5" y="151" width="60" height="30" as="geometry"/>
                </mxCell>
                <mxCell id="UMQPQjsPPzarFVJ_cjvQ-19" value="" style="endArrow=classic;html=1;exitX=1;exitY=0.5;exitDx=0;exitDy=0;exitPerimeter=0;" parent="1" edge="1">
                    <mxGeometry width="50" height="50" relative="1" as="geometry">
                        <mxPoint x="290" y="280" as="sourcePoint"/>
                        <mxPoint x="370" y="280" as="targetPoint"/>
                    </mxGeometry>
                </mxCell>
                <mxCell id="UMQPQjsPPzarFVJ_cjvQ-21" value="Lambda" style="text;html=1;strokeColor=none;fillColor=none;align=center;verticalAlign=middle;whiteSpace=wrap;rounded=0;" parent="1" vertex="1">
                    <mxGeometry x="840" y="310" width="60" height="30" as="geometry"/>
                </mxCell>
                <mxCell id="UMQPQjsPPzarFVJ_cjvQ-22" value="" style="endArrow=classic;html=1;entryX=0;entryY=0.417;entryDx=0;entryDy=0;entryPerimeter=0;" parent="1" target="UMQPQjsPPzarFVJ_cjvQ-42" edge="1">
                    <mxGeometry width="50" height="50" relative="1" as="geometry">
                        <mxPoint x="430" y="280" as="sourcePoint"/>
                        <mxPoint x="580" y="280" as="targetPoint"/>
                    </mxGeometry>
                </mxCell>
                <mxCell id="UMQPQjsPPzarFVJ_cjvQ-23" value="or" style="text;html=1;strokeColor=none;fillColor=none;align=center;verticalAlign=middle;whiteSpace=wrap;rounded=0;" parent="1" vertex="1">
                    <mxGeometry x="320" y="111" width="60" height="30" as="geometry"/>
                </mxCell>
                <mxCell id="UMQPQjsPPzarFVJ_cjvQ-24" value="or" style="text;html=1;strokeColor=none;fillColor=none;align=center;verticalAlign=middle;whiteSpace=wrap;rounded=0;" parent="1" vertex="1">
                    <mxGeometry x="420" y="111" width="10" height="30" as="geometry"/>
                </mxCell>
                <mxCell id="UMQPQjsPPzarFVJ_cjvQ-28" value="" style="endArrow=classic;html=1;" parent="1" edge="1">
                    <mxGeometry width="50" height="50" relative="1" as="geometry">
                        <mxPoint x="390" y="240" as="sourcePoint"/>
                        <mxPoint x="390" y="190" as="targetPoint"/>
                    </mxGeometry>
                </mxCell>
                <mxCell id="UMQPQjsPPzarFVJ_cjvQ-29" value="auth" style="text;html=1;strokeColor=none;fillColor=none;align=center;verticalAlign=middle;whiteSpace=wrap;rounded=0;" parent="1" vertex="1">
                    <mxGeometry x="340" y="210" width="50" height="30" as="geometry"/>
                </mxCell>
                <mxCell id="UMQPQjsPPzarFVJ_cjvQ-30" value="Business Logic" style="rounded=0;whiteSpace=wrap;html=1;fillColor=#f5f5f5;fontColor=#333333;strokeColor=#666666;" parent="1" vertex="1">
                    <mxGeometry x="920" y="270" width="150" height="60" as="geometry"/>
                </mxCell>
                <mxCell id="UMQPQjsPPzarFVJ_cjvQ-31" value="orther services" style="rounded=0;whiteSpace=wrap;html=1;fillColor=#e1d5e7;strokeColor=#9673a6;dashed=1;" parent="1" vertex="1">
                    <mxGeometry x="830" y="460" width="250" height="80" as="geometry"/>
                </mxCell>
                <mxCell id="UMQPQjsPPzarFVJ_cjvQ-32" value="" style="outlineConnect=0;dashed=0;verticalLabelPosition=bottom;verticalAlign=top;align=center;html=1;shape=mxgraph.aws3.iam;fillColor=#759C3E;gradientColor=none;" parent="1" vertex="1">
                    <mxGeometry x="830" y="102" width="40" height="51" as="geometry"/>
                </mxCell>
                <mxCell id="UMQPQjsPPzarFVJ_cjvQ-33" value="Unit test" style="ellipse;shape=cloud;whiteSpace=wrap;html=1;fillColor=#f5f5f5;fontColor=#333333;strokeColor=#666666;" parent="1" vertex="1">
                    <mxGeometry x="1010" y="300" width="80" height="50" as="geometry"/>
                </mxCell>
                <mxCell id="UMQPQjsPPzarFVJ_cjvQ-34" value="" style="endArrow=classic;html=1;entryX=0.635;entryY=-0.04;entryDx=0;entryDy=0;entryPerimeter=0;" parent="1" target="UMQPQjsPPzarFVJ_cjvQ-31" edge="1">
                    <mxGeometry width="50" height="50" relative="1" as="geometry">
                        <mxPoint x="990" y="360" as="sourcePoint"/>
                        <mxPoint x="1002" y="450" as="targetPoint"/>
                    </mxGeometry>
                </mxCell>
                <mxCell id="UMQPQjsPPzarFVJ_cjvQ-35" value="Integration Test" style="ellipse;shape=cloud;whiteSpace=wrap;html=1;fillColor=#f5f5f5;fontColor=#333333;strokeColor=#666666;" parent="1" vertex="1">
                    <mxGeometry x="960" y="390" width="140" height="50" as="geometry"/>
                </mxCell>
                <mxCell id="UMQPQjsPPzarFVJ_cjvQ-36" value="IAM" style="text;html=1;strokeColor=none;fillColor=none;align=center;verticalAlign=middle;whiteSpace=wrap;rounded=0;" parent="1" vertex="1">
                    <mxGeometry x="830" y="153" width="60" height="30" as="geometry"/>
                </mxCell>
                <mxCell id="UMQPQjsPPzarFVJ_cjvQ-39" value="" style="sketch=0;points=[[0,0,0],[0.25,0,0],[0.5,0,0],[0.75,0,0],[1,0,0],[0,1,0],[0.25,1,0],[0.5,1,0],[0.75,1,0],[1,1,0],[0,0.25,0],[0,0.5,0],[0,0.75,0],[1,0.25,0],[1,0.5,0],[1,0.75,0]];outlineConnect=0;fontColor=#232F3E;gradientColor=#4D72F3;gradientDirection=north;fillColor=#3334B9;strokeColor=#ffffff;dashed=0;verticalLabelPosition=bottom;verticalAlign=top;align=center;html=1;fontSize=12;fontStyle=0;aspect=fixed;shape=mxgraph.aws4.resourceIcon;resIcon=mxgraph.aws4.rds;" parent="1" vertex="1">
                    <mxGeometry x="610" y="530" width="40" height="40" as="geometry"/>
                </mxCell>
                <mxCell id="UMQPQjsPPzarFVJ_cjvQ-40" value="" style="sketch=0;points=[[0,0,0],[0.25,0,0],[0.5,0,0],[0.75,0,0],[1,0,0],[0,1,0],[0.25,1,0],[0.5,1,0],[0.75,1,0],[1,1,0],[0,0.25,0],[0,0.5,0],[0,0.75,0],[1,0.25,0],[1,0.5,0],[1,0.75,0]];outlineConnect=0;fontColor=#232F3E;gradientColor=#FF4F8B;gradientDirection=north;fillColor=#BC1356;strokeColor=#ffffff;dashed=0;verticalLabelPosition=bottom;verticalAlign=top;align=center;html=1;fontSize=12;fontStyle=0;aspect=fixed;shape=mxgraph.aws4.resourceIcon;resIcon=mxgraph.aws4.appsync;" parent="1" vertex="1">
                    <mxGeometry x="250" y="261.25" width="40" height="40" as="geometry"/>
                </mxCell>
                <mxCell id="UMQPQjsPPzarFVJ_cjvQ-41" value="Resolvers" style="text;html=1;strokeColor=none;fillColor=none;align=center;verticalAlign=middle;whiteSpace=wrap;rounded=0;" parent="1" vertex="1">
                    <mxGeometry x="640" y="190" width="50" height="30" as="geometry"/>
                </mxCell>
                <mxCell id="UMQPQjsPPzarFVJ_cjvQ-42" value="" style="rounded=0;whiteSpace=wrap;html=1;fillColor=none;dashed=1;" parent="1" vertex="1">
                    <mxGeometry x="600" y="180" width="120" height="240" as="geometry"/>
                </mxCell>
                <mxCell id="UMQPQjsPPzarFVJ_cjvQ-43" value="" style="endArrow=classic;html=1;entryX=0;entryY=0.5;entryDx=0;entryDy=0;entryPerimeter=0;" parent="1" target="UMQPQjsPPzarFVJ_cjvQ-6" edge="1">
                    <mxGeometry width="50" height="50" relative="1" as="geometry">
                        <mxPoint x="726" y="280" as="sourcePoint"/>
                        <mxPoint x="889.9999999999999" y="277.94000000000005" as="targetPoint"/>
                    </mxGeometry>
                </mxCell>
                <mxCell id="UMQPQjsPPzarFVJ_cjvQ-46" value="request template" style="text;html=1;strokeColor=none;fillColor=none;align=center;verticalAlign=middle;whiteSpace=wrap;rounded=0;" parent="1" vertex="1">
                    <mxGeometry x="750" y="247.5" width="50" height="30" as="geometry"/>
                </mxCell>
                <mxCell id="UMQPQjsPPzarFVJ_cjvQ-47" value="" style="rounded=0;whiteSpace=wrap;html=1;fillColor=none;" parent="1" vertex="1">
                    <mxGeometry x="560" y="510" width="200" height="80" as="geometry"/>
                </mxCell>
                <mxCell id="UMQPQjsPPzarFVJ_cjvQ-50" value="" style="sketch=0;points=[[0,0,0],[0.25,0,0],[0.5,0,0],[0.75,0,0],[1,0,0],[0,1,0],[0.25,1,0],[0.5,1,0],[0.75,1,0],[1,1,0],[0,0.25,0],[0,0.5,0],[0,0.75,0],[1,0.25,0],[1,0.5,0],[1,0.75,0]];outlineConnect=0;fontColor=#232F3E;gradientColor=#4D72F3;gradientDirection=north;fillColor=#3334B9;strokeColor=#ffffff;dashed=0;verticalLabelPosition=bottom;verticalAlign=top;align=center;html=1;fontSize=12;fontStyle=0;aspect=fixed;shape=mxgraph.aws4.resourceIcon;resIcon=mxgraph.aws4.dynamodb;" parent="1" vertex="1">
                    <mxGeometry x="680" y="530" width="40" height="40" as="geometry"/>
                </mxCell>
                <mxCell id="UMQPQjsPPzarFVJ_cjvQ-51" value="Data Source" style="text;html=1;strokeColor=none;fillColor=none;align=center;verticalAlign=middle;whiteSpace=wrap;rounded=0;" parent="1" vertex="1">
                    <mxGeometry x="700" y="480" width="100" height="30" as="geometry"/>
                </mxCell>
                <mxCell id="UMQPQjsPPzarFVJ_cjvQ-54" value="" style="sketch=0;points=[[0,0,0],[0.25,0,0],[0.5,0,0],[0.75,0,0],[1,0,0],[0,1,0],[0.25,1,0],[0.5,1,0],[0.75,1,0],[1,1,0],[0,0.25,0],[0,0.5,0],[0,0.75,0],[1,0.25,0],[1,0.5,0],[1,0.75,0]];outlineConnect=0;fontColor=#232F3E;gradientColor=#4D72F3;gradientDirection=north;fillColor=#3334B9;strokeColor=#ffffff;dashed=0;verticalLabelPosition=bottom;verticalAlign=top;align=center;html=1;fontSize=12;fontStyle=0;aspect=fixed;shape=mxgraph.aws4.resourceIcon;resIcon=mxgraph.aws4.rds;" parent="1" vertex="1">
                    <mxGeometry x="1170" y="480" width="40" height="40" as="geometry"/>
                </mxCell>
                <mxCell id="UMQPQjsPPzarFVJ_cjvQ-55" value="" style="rounded=0;whiteSpace=wrap;html=1;fillColor=none;" parent="1" vertex="1">
                    <mxGeometry x="1120" y="460" width="200" height="80" as="geometry"/>
                </mxCell>
                <mxCell id="UMQPQjsPPzarFVJ_cjvQ-56" value="" style="sketch=0;points=[[0,0,0],[0.25,0,0],[0.5,0,0],[0.75,0,0],[1,0,0],[0,1,0],[0.25,1,0],[0.5,1,0],[0.75,1,0],[1,1,0],[0,0.25,0],[0,0.5,0],[0,0.75,0],[1,0.25,0],[1,0.5,0],[1,0.75,0]];outlineConnect=0;fontColor=#232F3E;gradientColor=#4D72F3;gradientDirection=north;fillColor=#3334B9;strokeColor=#ffffff;dashed=0;verticalLabelPosition=bottom;verticalAlign=top;align=center;html=1;fontSize=12;fontStyle=0;aspect=fixed;shape=mxgraph.aws4.resourceIcon;resIcon=mxgraph.aws4.dynamodb;" parent="1" vertex="1">
                    <mxGeometry x="1240" y="480" width="40" height="40" as="geometry"/>
                </mxCell>
                <mxCell id="UMQPQjsPPzarFVJ_cjvQ-57" value="" style="endArrow=classic;html=1;entryX=0.25;entryY=0;entryDx=0;entryDy=0;exitX=0.917;exitY=0.996;exitDx=0;exitDy=0;exitPerimeter=0;" parent="1" source="UMQPQjsPPzarFVJ_cjvQ-3" target="UMQPQjsPPzarFVJ_cjvQ-55" edge="1">
                    <mxGeometry width="50" height="50" relative="1" as="geometry">
                        <mxPoint x="620" y="420" as="sourcePoint"/>
                        <mxPoint x="670" y="370" as="targetPoint"/>
                    </mxGeometry>
                </mxCell>
                <mxCell id="UMQPQjsPPzarFVJ_cjvQ-58" value="Data Source" style="text;html=1;strokeColor=none;fillColor=none;align=center;verticalAlign=middle;whiteSpace=wrap;rounded=0;" parent="1" vertex="1">
                    <mxGeometry x="1225" y="430" width="100" height="30" as="geometry"/>
                </mxCell>
                <mxCell id="PXs_X6MLJcBOfH0iYe1D-1" value="E2E Test" style="ellipse;shape=cloud;whiteSpace=wrap;html=1;dashed=1;fillColor=default;" parent="1" vertex="1">
                    <mxGeometry x="110" y="223.75" width="101" height="37.5" as="geometry"/>
                </mxCell>
                <mxCell id="PXs_X6MLJcBOfH0iYe1D-2" value="E2E Test" style="ellipse;shape=cloud;whiteSpace=wrap;html=1;dashed=1;fillColor=default;" parent="1" vertex="1">
                    <mxGeometry x="710" y="292.5" width="101" height="37.5" as="geometry"/>
                </mxCell>
                <mxCell id="PXs_X6MLJcBOfH0iYe1D-4" value="" style="endArrow=classic;html=1;entryX=1.027;entryY=0.654;entryDx=0;entryDy=0;entryPerimeter=0;" parent="1" target="UMQPQjsPPzarFVJ_cjvQ-42" edge="1">
                    <mxGeometry width="50" height="50" relative="1" as="geometry">
                        <mxPoint x="820" y="337" as="sourcePoint"/>
                        <mxPoint x="760" y="380" as="targetPoint"/>
                    </mxGeometry>
                </mxCell>
                <mxCell id="PXs_X6MLJcBOfH0iYe1D-5" value="response template" style="text;html=1;strokeColor=none;fillColor=none;align=center;verticalAlign=middle;whiteSpace=wrap;rounded=0;" parent="1" vertex="1">
                    <mxGeometry x="750" y="340" width="50" height="37.5" as="geometry"/>
                </mxCell>
                <mxCell id="bZu0P97wp5R2KPQNPETY-1" value="" style="endArrow=classic;html=1;entryX=0.55;entryY=-0.03;entryDx=0;entryDy=0;entryPerimeter=0;exitX=0.583;exitY=0.994;exitDx=0;exitDy=0;exitPerimeter=0;" parent="1" source="UMQPQjsPPzarFVJ_cjvQ-42" target="UMQPQjsPPzarFVJ_cjvQ-47" edge="1">
                    <mxGeometry width="50" height="50" relative="1" as="geometry">
                        <mxPoint x="560" y="470" as="sourcePoint"/>
                        <mxPoint x="610" y="420" as="targetPoint"/>
                    </mxGeometry>
                </mxCell>
                <mxCell id="h9T_-SPiMlxv2jemb-SE-1" value="" style="rounded=0;whiteSpace=wrap;html=1;fillColor=none;dashed=1;" parent="1" vertex="1">
                    <mxGeometry x="240" y="10" width="1100" height="600" as="geometry"/>
                </mxCell>
            </root>
        </mxGraphModel>
    </diagram>
</mxfile>